# xmcd
#
# Track frame offsets: 
#        150
#        14130
#        31006
#        51499
#        77134
#        97688
#        117789
#        129216
#        149350
#        159630
#
# Disc length: 2370 seconds
#
# Revision: 0
# Processed by: cddbd v1.5.2PL0 Copyright (c) Steve Scherf et al.
# Submitted via: ExactAudioCopy v0.99pb5
#
DISCID=7a09400a
DTITLE=Upshot - Bring Bourbon
DYEAR=2015
DGENRE=Rock
TTITLE0=Rufus
TTITLE1=Hop On In
TTITLE2=Mind of Me
TTITLE3=Driving
TTITLE4=Morning After
TTITLE5=One Step At A Time
TTITLE6=Lil Ditty
TTITLE7=Coming Out Alive
TTITLE8=Nightcap
TTITLE9=I Made You Breakfast (ft. James Jones)
EXTD=
EXTT0=
EXTT1=
EXTT2=
EXTT3=
EXTT4=
EXTT5=
EXTT6=
EXTT7=
EXTT8=
EXTT9=
PLAYORDER=
